<svg xmlns="http://www.w3.org/2000/svg" viewBox="0 0 560 300" width="560" height="300" role="img" aria-labelledby="render-tree-title">
  <title id="render-tree-title">Render daraxti: React App'dan boshlab har bir komponentni chaqiradi; Menyu qayta chizilsa, uning ichidagi TaomKartasi'lar ham qayta chiziladi, Sarlavha esa tegilmaydi</title>
  <defs>
    <marker id="rt-arrow" markerWidth="10" markerHeight="10" refX="8" refY="5" orient="auto">
      <path d="M0,0 L10,5 L0,10 Z" fill="#c67139" />
    </marker>
  </defs>
  <rect width="560" height="300" fill="#ffffff" />

  <line x1="280" y1="56" x2="160" y2="96" stroke="#c67139" stroke-width="2" marker-end="url(#rt-arrow)" />
  <line x1="280" y1="56" x2="390" y2="96" stroke="#c67139" stroke-width="2" marker-end="url(#rt-arrow)" />
  <line x1="390" y1="140" x2="290" y2="184" stroke="#c67139" stroke-width="2" marker-end="url(#rt-arrow)" />
  <line x1="390" y1="140" x2="390" y2="184" stroke="#c67139" stroke-width="2" marker-end="url(#rt-arrow)" />
  <line x1="390" y1="140" x2="490" y2="184" stroke="#c67139" stroke-width="2" marker-end="url(#rt-arrow)" />

  <rect x="230" y="12" width="100" height="44" rx="8" fill="#ffffff" stroke="#c67139" stroke-width="2" />
  <text x="280" y="39" text-anchor="middle" font-size="14" font-weight="bold" fill="#402310" font-family="sans-serif">App</text>

  <rect x="95" y="96" width="130" height="44" rx="8" fill="#ffffff" stroke="#c67139" stroke-width="2" />
  <text x="160" y="123" text-anchor="middle" font-size="14" fill="#402310" font-family="sans-serif">Sarlavha</text>

  <rect x="325" y="96" width="130" height="44" rx="8" fill="#fff2eb" stroke="#c67139" stroke-width="3" />
  <text x="390" y="123" text-anchor="middle" font-size="14" font-weight="bold" fill="#402310" font-family="sans-serif">Menyu</text>

  <rect x="235" y="184" width="110" height="40" rx="8" fill="#fff2eb" stroke="#c67139" stroke-width="2" />
  <text x="290" y="209" text-anchor="middle" font-size="12" fill="#402310" font-family="sans-serif">TaomKartasi</text>
  <rect x="345" y="184" width="90" height="40" rx="8" fill="#fff2eb" stroke="#c67139" stroke-width="2" />
  <text x="390" y="209" text-anchor="middle" font-size="12" fill="#402310" font-family="sans-serif">TaomKartasi</text>
  <rect x="445" y="184" width="100" height="40" rx="8" fill="#fff2eb" stroke="#c67139" stroke-width="2" />
  <text x="495" y="209" text-anchor="middle" font-size="12" fill="#402310" font-family="sans-serif">TaomKartasi</text>

  <rect x="30" y="250" width="16" height="16" rx="3" fill="#fff2eb" stroke="#c67139" stroke-width="2" />
  <text x="54" y="263" font-size="12" fill="#6a675e" font-family="sans-serif">qayta chiziladi</text>
  <rect x="170" y="250" width="16" height="16" rx="3" fill="#ffffff" stroke="#c67139" stroke-width="2" />
  <text x="194" y="263" font-size="12" fill="#6a675e" font-family="sans-serif">tegilmaydi</text>
  <text x="30" y="290" font-size="12" fill="#6a675e" font-family="sans-serif">Menyu qayta chizilsa, React uning ichidagi barcha komponentlarni ham qayta chaqiradi</text>
</svg>
